<?xml version="1.0" encoding="UTF-8"?>
<!-- Generator: visioncortex VTracer 0.6.12 -->
<svg version="1.1" xmlns="http://www.w3.org/2000/svg" width="5389" height="2940">
<path d="M0 0 C0 0.33 0 0.66 0 1 C-0.906 1.129 -1.811 1.259 -2.745 1.392 C-3.363 1.48 -3.981 1.569 -4.617 1.66 C-6.067 1.867 -7.517 2.074 -8.966 2.281 C-13.388 2.912 -17.81 3.545 -22.232 4.179 C-32.658 5.674 -43.085 7.154 -53.517 8.605 C-128.124 18.982 -202.44 31.12 -530.445 106.746 C-531.462 107.053 -532.479 107.359 -533.526 107.675 C-538.327 109.123 -543.12 110.587 -547.904 112.092 C-556.74 114.82 -564.627 116.957 -574 116 C-574.01 116.762 -574.021 117.525 -574.031 118.311 C-575 121 -575 121 -578.156 122.611 C-579.597 123.106 -581.046 123.577 -582.5 124.031 C-583.297 124.3 -584.094 124.568 -584.916 124.845 C-586.671 125.434 -588.43 126.014 -590.191 126.586 C-595.09 128.18 -599.965 129.847 -604.844 131.504 C-605.369 131.681 -605.369 131.681 -608.025 132.578 C-620.938 136.958 -633.716 141.699 -646.5 146.438 C-648.961 147.348 -651.422 148.259 -653.883 149.17 C-658.692 150.951 -663.5 152.735 -668.308 154.52 C-673.39 156.405 -678.475 158.28 -683.563 160.149 C-728.77 176.747 -773.523 194.542 -818 213 C-818.457 213.189 -818.457 213.189 -820.767 214.148 C-843.545 223.601 -866.281 233.145 -888.862 243.061 C-891.204 244.089 -893.546 245.116 -895.888 246.144 C-920.359 256.88 -944.746 267.783 -969 279 C-969.659 279.305 -970.318 279.609 -970.997 279.923 C-988.141 287.849 -1005.202 295.937 -1022.2 304.172 C-1025.002 305.524 -1027.812 306.86 -1030.625 308.19 C-1047.638 316.251 -1064.474 324.66 -1081.308 333.089 C-1085.433 335.154 -1089.56 337.216 -1093.688 339.277 C-1109.875 347.361 -1126.056 355.443 -1142 364 C-1143.21 364.645 -1144.42 365.29 -1145.63 365.934 C-1148.944 367.7 -1152.254 369.474 -1155.562 371.25 C-1156.753 371.889 -1157.944 372.528 -1159.135 373.167 C-1160.963 374.148 -1162.791 375.129 -1164.618 376.111 C-1168.665 378.284 -1172.714 380.452 -1176.766 382.617 C-1188.001 388.631 -1199.174 394.735 -1210.25 401.038 C-1216.476 404.581 -1222.728 408.073 -1228.998 411.537 C-1241.709 418.561 -1254.301 425.762 -1266.816 433.128 C-1270.229 435.135 -1273.647 437.133 -1277.066 439.129 C-1288.583 445.856 -1300.075 452.619 -1311.5 459.5 C-1325.262 467.788 -1339.126 475.901 -1353 484 C-1354.067 484.623 -1355.133 485.246 -1356.232 485.888 C-1362.18 489.361 -1368.13 492.83 -1374.081 496.298 C-1380.054 499.78 -1386.025 503.264 -1391.997 506.749 C-1397.02 509.679 -1402.044 512.609 -1407.07 515.535 C-1437.604 533.319 -1467.988 551.346 -1498 570 C-1498.859 570.533 -1499.719 571.066 -1500.604 571.615 C-1514.294 580.13 -1527.705 589.068 -1541.125 598 C-1541.566 598.293 -1541.566 598.293 -1543.799 599.777 C-1564.138 613.305 -1584.427 627.073 -1603.836 641.918 C-1613.618 649.399 -1623.744 656.253 -1634.02 663.039 C-1641.698 668.111 -1649.285 673.314 -1656.865 678.531 C-1658.882 679.919 -1660.902 681.304 -1662.922 682.688 C-1681.369 695.331 -1699.696 708.151 -1718 721 C-1718.734 721.515 -1719.468 722.03 -1720.225 722.561 C-1730.456 729.746 -1740.615 737.027 -1750.738 744.363 C-1752.979 745.985 -1755.224 747.603 -1757.469 749.219 C-1767.564 756.487 -1777.596 763.836 -1787.6 771.229 C-1790.005 773.004 -1792.414 774.772 -1794.824 776.539 C-1804.607 783.715 -1814.297 790.996 -1823.912 798.396 C-1826.007 800.005 -1828.106 801.609 -1830.207 803.211 C-1840.522 811.076 -1850.776 819.017 -1861 827 C-1861.625 827.487 -1862.25 827.974 -1862.894 828.476 C-1870.346 834.285 -1877.717 840.185 -1885.035 846.162 C-1889.356 849.685 -1893.723 853.142 -1898.125 856.562 C-1903.54 860.779 -1908.776 865.171 -1913.964 869.663 C-1917.411 872.646 -1920.893 875.57 -1924.438 878.438 C-1930.12 883.054 -1935.636 887.852 -1941.156 892.66 C-1944.855 895.881 -1948.582 899.067 -1952.312 902.25 C-1957.202 906.427 -1962.019 910.674 -1966.781 914.996 C-1968.793 916.813 -1970.827 918.599 -1972.875 920.375 C-1977.287 924.216 -1981.579 928.187 -1985.875 932.156 C-1988.171 934.264 -1990.506 936.32 -1992.859 938.363 C-1997.081 942.043 -2001.174 945.848 -2005.25 949.688 C-2005.944 950.338 -2006.637 950.988 -2007.352 951.658 C-2010.616 954.726 -2013.86 957.803 -2017 961 C-2015.761 964.349 -2014.375 967.149 -2012.305 970.055 C-2011.762 970.822 -2011.219 971.59 -2010.66 972.381 C-2010.071 973.204 -2009.482 974.027 -2008.875 974.875 C-2007.601 976.674 -2006.328 978.474 -2005.055 980.273 C-2004.389 981.212 -2003.724 982.15 -2003.038 983.116 C-1999.664 987.891 -1996.333 992.696 -1993 997.5 C-1986.26 1007.197 -1979.495 1016.877 -1972.718 1026.548 C-1969.81 1030.698 -1966.905 1034.849 -1964 1039 C-1962.833 1040.667 -1961.667 1042.333 -1960.5 1044 C-1939.5 1074 -1939.5 1074 -1937.75 1076.501 C-1936.585 1078.165 -1935.419 1079.829 -1934.254 1081.493 C-1931.312 1085.697 -1928.37 1089.901 -1925.43 1094.105 C-1918.466 1104.062 -1911.482 1114.002 -1904.468 1123.923 C-1901.977 1127.448 -1899.489 1130.974 -1897 1134.5 C-1896 1135.917 -1895 1137.333 -1894 1138.75 C-1888 1147.25 -1888 1147.25 -1886.5 1149.375 C-1885.5 1150.792 -1884.499 1152.21 -1883.498 1153.627 C-1881.007 1157.154 -1878.519 1160.683 -1876.035 1164.215 C-1870.364 1172.274 -1864.638 1180.289 -1858.856 1188.269 C-1855.2 1193.321 -1851.587 1198.399 -1848 1203.5 C-1843.29 1210.198 -1838.517 1216.848 -1833.715 1223.48 C-1830.46 1227.976 -1827.22 1232.48 -1824 1237 C-1818.591 1244.588 -1813.13 1252.139 -1807.669 1259.69 C-1806.035 1261.952 -1804.404 1264.216 -1802.773 1266.48 C-1796.646 1274.989 -1790.467 1283.456 -1784.235 1291.888 C-1780.244 1297.294 -1776.298 1302.731 -1772.375 1308.188 C-1767.847 1314.48 -1763.249 1320.713 -1758.581 1326.902 C-1754.763 1331.968 -1751.001 1337.072 -1747.25 1342.188 C-1741.579 1349.913 -1735.793 1357.544 -1729.969 1365.154 C-1725.521 1370.975 -1721.143 1376.841 -1716.812 1382.75 C-1710.853 1390.879 -1704.769 1398.902 -1698.622 1406.89 C-1696.401 1409.78 -1694.188 1412.677 -1691.975 1415.573 C-1681.988 1428.648 -1671.936 1441.671 -1661.828 1454.652 C-1660.01 1456.987 -1658.194 1459.323 -1656.379 1461.66 C-1636.185 1487.653 -1636.185 1487.653 -1626 1500 C-1618.007 1495.692 -1610.11 1491.234 -1602.25 1486.688 C-1601.964 1486.522 -1601.964 1486.522 -1600.514 1485.685 C-1593.601 1481.69 -1586.705 1477.673 -1579.874 1473.541 C-1573.793 1469.864 -1567.678 1466.245 -1561.562 1462.625 C-1559.203 1461.228 -1556.844 1459.831 -1554.484 1458.434 C-1553.878 1458.074 -1553.271 1457.715 -1552.646 1457.345 C-1544.182 1452.332 -1535.724 1447.308 -1527.267 1442.284 C-1525.908 1441.477 -1524.55 1440.67 -1523.191 1439.863 C-1522.516 1439.462 -1521.842 1439.061 -1521.146 1438.648 C-1516.38 1435.818 -1511.61 1432.992 -1506.84 1430.168 C-1493.543 1422.293 -1480.28 1414.372 -1467.088 1406.323 C-1457.679 1400.586 -1448.196 1394.987 -1438.676 1389.437 C-1429.726 1384.217 -1420.842 1378.9 -1412 1373.5 C-1402.557 1367.733 -1393.059 1362.072 -1383.5 1356.5 C-1373.428 1350.628 -1363.427 1344.653 -1353.475 1338.58 C-1342.459 1331.86 -1331.377 1325.255 -1320.272 1318.682 C-1319.008 1317.934 -1317.744 1317.186 -1316.48 1316.438 C-1315.86 1316.07 -1315.239 1315.703 -1314.6 1315.324 C-1310.224 1312.732 -1305.859 1310.12 -1301.5 1307.5 C-1296.516 1304.504 -1291.523 1301.524 -1286.52 1298.562 C-1285.897 1298.194 -1285.275 1297.826 -1284.634 1297.446 C-1283.355 1296.689 -1282.076 1295.932 -1280.796 1295.175 C-1269.253 1288.339 -1257.749 1281.444 -1246.295 1274.46 C-1236.23 1268.326 -1226.107 1262.298 -1215.964 1256.295 C-1206.502 1250.693 -1197.077 1245.035 -1187.688 1239.312 C-1175.382 1231.814 -1162.999 1224.45 -1150.591 1217.122 C-1144.078 1213.275 -1137.569 1209.421 -1131.062 1205.562 C-1130.389 1205.163 -1129.715 1204.763 -1129.02 1204.352 C-1119.006 1198.412 -1109.041 1192.395 -1099.102 1186.332 C-1088.871 1180.094 -1078.558 1174.002 -1068.204 1167.97 C-1061.678 1164.166 -1055.178 1160.322 -1048.705 1156.428 C-1041.737 1152.237 -1034.744 1148.086 -1027.75 1143.938 C-1026.351 1143.107 -1024.951 1142.277 -1023.552 1141.446 C-1012.56 1134.923 -1001.564 1128.405 -990.566 1121.891 C-986.156 1119.278 -981.747 1116.663 -977.34 1114.047 C-965.094 1106.78 -952.828 1099.549 -940.536 1092.362 C-932.093 1087.424 -923.688 1082.427 -915.312 1077.375 C-905.897 1071.698 -896.406 1066.167 -886.87 1060.695 C-879.041 1056.195 -871.26 1051.618 -863.5 1047 C-853.564 1041.09 -843.581 1035.267 -833.559 1029.504 C-826.357 1025.362 -819.172 1021.193 -812 1017 C-800.453 1010.253 -788.871 1003.567 -777.282 996.891 C-772.936 994.387 -768.591 991.88 -764.246 989.373 C-760.995 987.497 -757.744 985.622 -754.492 983.746 C-750.184 981.261 -745.877 978.774 -741.57 976.285 C-726.915 967.819 -712.232 959.404 -697.532 951.016 C-692.269 948.013 -687.008 945.005 -681.747 941.998 C-680.001 941 -678.254 940.002 -676.507 939.005 C-671.228 935.989 -665.949 932.971 -660.673 929.949 C-645.853 921.457 -630.992 913.041 -616.077 904.718 C-610.881 901.817 -605.691 898.908 -600.5 896 C-598.417 894.833 -596.333 893.667 -594.25 892.5 C-593.734 892.211 -593.734 892.211 -591.125 890.75 C-588 889 -584.875 887.25 -581.75 885.5 C-580.719 884.923 -579.688 884.345 -578.626 883.75 C-576.539 882.582 -574.453 881.414 -572.366 880.246 C-567.206 877.357 -562.047 874.466 -556.891 871.57 C-542.816 863.671 -528.701 855.849 -514.563 848.065 C-510.226 845.677 -505.891 843.283 -501.559 840.887 C-488.302 833.557 -475.02 826.278 -461.691 819.078 C-456.119 816.068 -450.558 813.036 -445 810 C-424.709 798.922 -404.364 787.944 -384 777 C-382.902 776.41 -381.805 775.82 -380.674 775.212 C-354.714 761.262 -328.691 747.435 -302.527 733.871 C-297.549 731.289 -292.584 728.681 -287.625 726.062 C-276.598 720.244 -265.523 714.52 -254.451 708.788 C-251.18 707.093 -247.91 705.395 -244.641 703.695 C-218.051 689.875 -191.411 676.155 -164.586 662.797 C-155.259 658.152 -145.985 653.427 -136.785 648.535 C-102.683 630.413 -68.156 613.037 -33.625 595.75 C-33.163 595.518 -33.163 595.518 -30.822 594.345 C-19.858 588.85 -8.847 583.468 2.226 578.196 C9.167 574.888 16.081 571.527 22.98 568.133 C23.974 567.644 24.968 567.155 25.992 566.651 C28.02 565.653 30.047 564.655 32.075 563.657 C47.384 556.123 62.701 548.634 78.214 541.528 C87.039 537.477 95.773 533.256 104.5 529 C116.914 522.949 129.388 517.054 141.93 511.27 C146.861 508.995 151.782 506.7 156.695 504.387 C157.021 504.233 157.021 504.233 158.672 503.456 C160.005 502.829 161.337 502.202 162.67 501.574 C174.727 495.901 186.825 490.326 198.965 484.833 C210.842 479.457 222.677 473.993 234.5 468.5 C251.55 460.582 268.638 452.757 285.766 445.01 C288.12 443.946 290.474 442.88 292.828 441.814 C306.762 435.506 306.762 435.506 313.705 432.37 C322.122 428.567 330.536 424.759 338.942 420.932 C342.852 419.152 346.763 417.375 350.674 415.598 C352.55 414.744 354.426 413.89 356.302 413.033 C358.898 411.848 361.495 410.668 364.094 409.488 C364.869 409.133 365.644 408.778 366.442 408.412 C371.772 406 371.772 406 374 406 C372.508 413.239 370.497 420.228 368.309 427.285 C367.936 428.496 367.563 429.707 367.18 430.954 C366.153 434.289 365.122 437.622 364.09 440.955 C363.431 443.084 362.773 445.214 362.116 447.344 C338.208 524.805 313.825 602.12 284.012 695.689 C282.642 699.986 281.272 704.283 279.903 708.58 C267.513 747.457 255.052 786.31 242.486 825.13 C239.263 835.088 236.048 845.049 232.84 855.012 C223.275 884.707 213.649 914.382 203.936 944.029 C200.59 954.244 197.263 964.466 193.938 974.688 C180.968 1014.547 167.934 1054.385 154.867 1094.212 C152.353 1101.873 149.841 1109.534 147.331 1117.196 C136.479 1150.307 125.594 1183.407 114.688 1216.5 C114.361 1217.489 114.035 1218.479 113.7 1219.498 C99.906 1261.348 99.906 1261.348 93.136 1281.607 C92.814 1282.572 92.492 1283.536 92.16 1284.53 C91.523 1286.436 90.886 1288.342 90.248 1290.247 C86.251 1302.188 82.313 1314.146 78.434 1326.126 C73.002 1342.891 67.487 1359.628 61.906 1376.344 C61.735 1376.858 61.735 1376.858 60.867 1379.458 C58.061 1387.86 55.252 1396.261 52.443 1404.661 C49.991 1411.992 47.541 1419.324 45.094 1426.656 C44.749 1427.688 44.405 1428.719 44.05 1429.781 C39.316 1443.97 34.645 1458.178 30.031 1472.406 C24.987 1487.961 19.865 1503.489 14.688 1519 C14.333 1520.063 13.978 1521.127 13.612 1522.222 C10.713 1530.906 7.81 1539.588 4.906 1548.271 C2.373 1555.846 -0.158 1563.423 -2.688 1571 C-3.041 1572.059 -3.394 1573.117 -3.758 1574.208 C-8.978 1589.853 -14.123 1605.522 -19.213 1621.211 C-23.065 1633.083 -26.952 1644.943 -30.906 1656.781 C-31.14 1657.482 -31.374 1658.183 -31.616 1658.905 C-33.472 1664.46 -35.332 1670.014 -37.193 1675.568 C-43.377 1694.031 -49.485 1712.516 -55.499 1731.036 C-60.467 1746.33 -65.485 1761.607 -70.531 1776.875 C-70.897 1777.981 -71.262 1779.087 -71.639 1780.226 C-74.634 1789.29 -77.632 1798.353 -80.63 1807.416 C-90.577 1837.488 -100.473 1867.575 -110.254 1897.701 C-129.767 1957.792 -129.767 1957.792 -137.938 1980.938 C-144.984 2000.922 -151.794 2020.983 -158.562 2041.062 C-158.856 2041.934 -159.15 2042.805 -159.452 2043.702 C-171.925 2080.709 -184.286 2117.754 -196.641 2154.8 C-198.158 2159.351 -199.676 2163.901 -201.194 2168.451 C-211.874 2200.461 -222.526 2232.478 -232.92 2264.582 C-235.035 2271.113 -237.166 2277.638 -239.305 2284.16 C-239.905 2285.992 -240.505 2287.825 -241.105 2289.657 C-241.393 2290.536 -241.681 2291.415 -241.977 2292.321 C-248.016 2310.766 -253.969 2329.238 -259.865 2347.729 C-265.536 2365.509 -271.321 2383.25 -277.143 2400.981 C-282.879 2418.455 -288.528 2435.955 -294.114 2453.478 C-299.34 2469.867 -304.651 2486.228 -310.008 2502.575 C-314.598 2516.587 -319.127 2530.617 -323.601 2544.667 C-331.951 2570.89 -340.54 2597.033 -349.147 2623.173 C-349.39 2623.91 -349.633 2624.648 -349.883 2625.408 C-350.369 2626.883 -350.854 2628.357 -351.34 2629.832 C-354.931 2640.736 -358.5 2651.646 -362.043 2662.565 C-376.314 2706.551 -390.806 2750.468 -405.391 2794.351 C-406.168 2796.688 -406.944 2799.026 -407.718 2801.363 C-408.769 2804.532 -409.823 2807.7 -410.879 2810.867 C-411.032 2811.33 -411.032 2811.33 -411.806 2813.67 C-412.084 2814.5 -412.361 2815.329 -412.647 2816.183 C-412.766 2816.543 -412.766 2816.543 -413.371 2818.361 C-414 2820 -414 2820 -415 2821 C-418.001 2821.344 -420.986 2821.625 -423.996 2821.867 C-424.945 2821.946 -425.894 2822.026 -426.872 2822.107 C-430.06 2822.37 -433.249 2822.624 -436.438 2822.875 C-436.993 2822.919 -436.993 2822.919 -439.803 2823.142 C-477.448 2826.1 -515.165 2827.906 -552.906 2829.074 C-553.605 2829.096 -554.304 2829.118 -555.024 2829.14 C-595.672 2830.384 -636.328 2830.272 -676.991 2830.203 C-684.586 2830.19 -692.181 2830.182 -699.776 2830.177 C-754.864 2830.141 -809.947 2829.955 -865.031 2829.358 C-869.254 2829.313 -873.477 2829.268 -877.699 2829.223 C-878.204 2829.217 -878.204 2829.217 -880.759 2829.19 C-917.171 2828.807 -953.587 2828.905 -990 2829 C-988.588 2821.973 -986.546 2815.361 -984.176 2808.602 C-983.798 2807.511 -983.42 2806.421 -983.031 2805.297 C-981.796 2801.738 -980.554 2798.181 -979.312 2794.625 C-978.445 2792.129 -977.578 2789.633 -976.711 2787.137 C-974.544 2780.898 -972.37 2774.662 -970.194 2768.426 C-968.791 2764.401 -967.392 2760.376 -965.993 2756.35 C-962.012 2744.894 -958.01 2733.446 -954 2722 C-953.646 2720.989 -953.292 2719.978 -952.927 2718.936 C-943.576 2692.237 -934.155 2665.565 -924.584 2638.945 C-918.056 2620.786 -911.603 2602.601 -905.177 2584.406 C-895.936 2558.239 -886.599 2532.108 -877.169 2506.008 C-873.815 2496.722 -870.473 2487.431 -867.13 2478.14 C-865.254 2472.927 -863.377 2467.713 -861.5 2462.5 C-860.75 2460.417 -860 2458.333 -859.25 2456.25 C-851.75 2435.417 -844.25 2414.583 -836.75 2393.75 C-836.379 2392.719 -836.007 2391.687 -835.625 2390.625 C-834.875 2388.542 -834.125 2386.459 -833.375 2384.375 C-831.499 2379.165 -829.623 2373.954 -827.748 2368.743 C-824.011 2358.364 -820.274 2347.984 -816.535 2337.605 C-786.723 2254.843 -757.145 2172 -728 2089 C-727.674 2088.072 -727.349 2087.145 -727.013 2086.189 C-724.965 2080.356 -722.919 2074.522 -720.875 2068.688 C-720.598 2067.897 -720.321 2067.106 -720.036 2066.291 C-716.679 2056.704 -713.343 2047.11 -710.027 2037.508 C-700.815 2010.839 -691.415 1984.245 -681.852 1957.7 C-678.92 1949.559 -675.995 1941.415 -673.075 1933.269 C-660.839 1899.134 -648.495 1865.041 -636 1831 C-635.242 1828.933 -634.483 1826.866 -633.725 1824.799 C-629.599 1813.556 -625.469 1802.315 -621.336 1791.074 C-618.759 1784.065 -616.183 1777.054 -613.609 1770.043 C-606.032 1749.404 -598.444 1728.768 -590.841 1708.138 C-566.45 1641.957 -542.183 1575.732 -518.225 1509.393 C-517.022 1506.06 -515.818 1502.728 -514.614 1499.396 C-504.364 1471.024 -494.214 1442.617 -484.177 1414.168 C-482.714 1410.02 -481.248 1405.873 -479.78 1401.726 C-455.366 1332.756 -432.045 1263.438 -409 1194 C-412.122 1195.041 -414.612 1196.403 -417.469 1198.035 C-418.583 1198.671 -419.697 1199.307 -420.845 1199.963 C-422.064 1200.662 -423.282 1201.362 -424.5 1202.062 C-424.811 1202.241 -424.811 1202.241 -426.384 1203.142 C-437.707 1209.631 -448.943 1216.261 -460.156 1222.938 C-464.812 1225.707 -469.478 1228.457 -474.156 1231.188 C-474.755 1231.537 -475.353 1231.886 -475.969 1232.246 C-476.569 1232.596 -477.169 1232.946 -477.788 1233.307 C-491.531 1241.328 -505.171 1249.507 -518.753 1257.799 C-524.674 1261.414 -530.605 1265.012 -536.537 1268.61 C-540.594 1271.072 -544.65 1273.536 -548.706 1276 C-550.845 1277.298 -552.983 1278.597 -555.122 1279.895 C-566.071 1286.541 -577 1293.217 -587.883 1299.97 C-593.749 1303.61 -599.625 1307.231 -605.507 1310.844 C-618.053 1318.551 -630.556 1326.323 -643.032 1334.141 C-648.019 1337.265 -653.01 1340.382 -658 1343.5 C-660 1344.75 -662 1346 -664 1347.25 C-676 1354.75 -676 1354.75 -679.001 1356.626 C-680.997 1357.873 -682.993 1359.121 -684.989 1360.368 C-690.05 1363.532 -695.112 1366.695 -700.176 1369.855 C-709.297 1375.55 -718.414 1381.25 -727.5 1387 C-737.614 1393.4 -747.766 1399.739 -757.919 1406.077 C-762.947 1409.216 -767.974 1412.358 -773 1415.5 C-775 1416.75 -777 1418 -779 1419.25 C-779.99 1419.869 -780.98 1420.487 -782 1421.125 C-785 1423 -788 1424.875 -791 1426.75 C-791.99 1427.369 -792.98 1427.988 -794.001 1428.625 C-795.998 1429.874 -797.996 1431.122 -799.993 1432.371 C-805.032 1435.519 -810.069 1438.669 -815.105 1441.82 C-827.199 1449.386 -839.31 1456.921 -851.445 1464.42 C-853.985 1465.991 -856.524 1467.563 -859.062 1469.137 C-880.554 1482.456 -902.092 1495.695 -923.717 1508.796 C-927.771 1511.253 -931.82 1513.716 -935.867 1516.184 C-948.304 1523.762 -960.781 1531.266 -973.312 1538.688 C-990.653 1548.961 -1007.959 1559.268 -1024.836 1570.293 C-1031.709 1574.777 -1038.67 1579.125 -1045.615 1583.497 C-1047.939 1584.961 -1050.261 1586.429 -1052.582 1587.898 C-1062.399 1594.111 -1072.241 1600.281 -1082.096 1606.433 C-1088.242 1610.271 -1094.377 1614.125 -1100.5 1618 C-1117.141 1628.526 -1133.858 1638.928 -1150.639 1649.229 C-1156.954 1653.111 -1163.243 1657.027 -1169.5 1661 C-1180.144 1667.757 -1190.892 1674.342 -1201.637 1680.936 C-1207.094 1684.286 -1212.547 1687.643 -1218 1691 C-1220.167 1692.333 -1222.333 1693.667 -1224.5 1695 C-1225.573 1695.66 -1226.645 1696.32 -1227.75 1697 C-1231 1699 -1234.25 1701 -1237.5 1703 C-1238.573 1703.66 -1239.645 1704.32 -1240.751 1705 C-1242.915 1706.332 -1245.079 1707.664 -1247.243 1708.996 C-1252.698 1712.352 -1258.153 1715.71 -1263.605 1719.07 C-1274.827 1725.984 -1286.063 1732.875 -1297.328 1739.718 C-1304.464 1744.056 -1311.579 1748.429 -1318.688 1752.812 C-1331.246 1760.553 -1343.851 1768.214 -1356.468 1775.859 C-1361.731 1779.049 -1366.991 1782.244 -1372.252 1785.439 C-1375.168 1787.209 -1378.084 1788.98 -1381 1790.75 C-1382.167 1791.458 -1383.333 1792.167 -1384.5 1792.875 C-1391.5 1797.125 -1391.5 1797.125 -1393.25 1798.187 C-1394.417 1798.896 -1395.584 1799.604 -1396.75 1800.313 C-1399.665 1802.082 -1402.579 1803.851 -1405.493 1805.621 C-1410.772 1808.825 -1416.051 1812.03 -1421.327 1815.239 C-1434.056 1822.979 -1446.8 1830.693 -1459.583 1838.345 C-1467.844 1843.295 -1476.072 1848.297 -1484.297 1853.306 C-1494.766 1859.679 -1505.3 1865.938 -1515.848 1872.179 C-1530.112 1880.621 -1530.112 1880.621 -1537 1885 C-1545.334 1890.298 -1553.857 1895.281 -1562.355 1900.308 C-1571.94 1905.98 -1581.491 1911.702 -1591 1917.5 C-1601.629 1923.981 -1612.315 1930.362 -1623.03 1936.701 C-1632.031 1942.027 -1640.994 1947.409 -1649.921 1952.859 C-1660.124 1959.088 -1670.395 1965.163 -1680.805 1971.043 C-1684.499 1973.134 -1688.166 1975.266 -1691.82 1977.426 C-1716.189 1991.826 -1740.594 2005.428 -1768 2013 C-1769.235 2013.343 -1770.47 2013.686 -1771.742 2014.039 C-1801.152 2020.806 -1836.897 2016.578 -1862.755 2000.52 C-1879.168 1989.895 -1892.013 1976.001 -1903 1960 C-1903.245 1959.646 -1903.245 1959.646 -1904.482 1957.853 C-1907.167 1953.957 -1909.834 1950.05 -1912.492 1946.137 C-1916.218 1940.662 -1920.017 1935.239 -1923.812 1929.812 C-1930.151 1920.741 -1936.336 1911.575 -1942.421 1902.331 C-1946.19 1896.626 -1950.09 1891.048 -1954.154 1885.548 C-1956.779 1881.925 -1959.229 1878.193 -1961.695 1874.461 C-1964.441 1870.319 -1967.253 1866.223 -1970.062 1862.125 C-1971.194 1860.474 -1972.326 1858.823 -1973.457 1857.172 C-1974.038 1856.324 -1974.619 1855.477 -1975.217 1854.604 C-1985.797 1839.153 -1996.316 1823.66 -2006.843 1808.173 C-2010.395 1802.948 -2013.947 1797.724 -2017.5 1792.5 C-2018.917 1790.417 -2020.333 1788.333 -2021.75 1786.25 C-2022.451 1785.219 -2023.153 1784.188 -2023.875 1783.125 C-2030.25 1773.75 -2030.25 1773.75 -2032.375 1770.624 C-2033.791 1768.543 -2035.206 1766.462 -2036.621 1764.382 C-2040.188 1759.136 -2043.754 1753.891 -2047.32 1748.645 C-2055.923 1735.99 -2064.535 1723.342 -2073.157 1710.702 C-2076.272 1706.135 -2079.386 1701.567 -2082.5 1697 C-2083.117 1696.094 -2083.735 1695.189 -2084.371 1694.256 C-2087.521 1689.636 -2090.671 1685.015 -2093.82 1680.395 C-2101.335 1669.369 -2108.86 1658.35 -2116.398 1647.34 C-2118.037 1644.946 -2119.675 1642.551 -2121.312 1640.156 C-2127.31 1631.385 -2133.316 1622.62 -2139.34 1613.867 C-2141.084 1611.332 -2142.826 1608.796 -2144.566 1606.258 C-2150.656 1597.38 -2156.797 1588.54 -2162.951 1579.708 C-2167.206 1573.596 -2171.43 1567.465 -2175.625 1561.312 C-2180.55 1554.091 -2185.538 1546.916 -2190.559 1539.761 C-2195.056 1533.352 -2199.532 1526.929 -2204 1520.5 C-2214.305 1505.676 -2224.652 1490.882 -2235.074 1476.141 C-2237.039 1473.362 -2239 1470.581 -2240.957 1467.797 C-2246.067 1460.535 -2251.217 1453.308 -2256.438 1446.125 C-2260.97 1439.888 -2265.365 1433.572 -2269.688 1427.188 C-2274.084 1420.701 -2278.65 1414.453 -2283.484 1408.285 C-2286.923 1403.85 -2290.112 1399.238 -2293.333 1394.644 C-2301.964 1382.332 -2310.834 1370.195 -2319.771 1358.104 C-2323.699 1352.784 -2327.58 1347.433 -2331.438 1342.062 C-2336.706 1334.735 -2342.093 1327.503 -2347.521 1320.294 C-2353.08 1312.91 -2358.557 1305.469 -2364 1298 C-2367.096 1299.387 -2369.303 1301.012 -2371.758 1303.344 C-2372.109 1303.676 -2372.109 1303.676 -2373.889 1305.358 C-2374.627 1306.065 -2375.365 1306.772 -2376.125 1307.5 C-2376.885 1308.222 -2377.646 1308.944 -2378.429 1309.687 C-2383.333 1314.356 -2388.139 1319.107 -2392.895 1323.926 C-2394.788 1325.791 -2396.725 1327.531 -2398.75 1329.25 C-2402.71 1332.63 -2406.341 1336.302 -2410 1340 C-2417.281 1347.357 -2417.281 1347.357 -2420.938 1350.438 C-2425.701 1354.46 -2430.009 1358.96 -2434.371 1363.408 C-2437.455 1366.534 -2440.575 1369.543 -2443.906 1372.406 C-2448.507 1376.374 -2452.743 1380.67 -2457 1385 C-2465.422 1393.566 -2465.422 1393.566 -2469.969 1397.469 C-2474.732 1401.562 -2479.097 1406.026 -2483.5 1410.5 C-2492.454 1419.598 -2492.454 1419.598 -2496.938 1423.438 C-2502.069 1427.843 -2506.755 1432.687 -2511.5 1437.5 C-2516.834 1442.911 -2522.16 1448.212 -2527.932 1453.154 C-2532.315 1457.065 -2536.377 1461.318 -2540.5 1465.5 C-2550.517 1475.661 -2550.517 1475.661 -2554.969 1479.469 C-2560.271 1484.009 -2565.103 1489.033 -2570 1494 C-2575.488 1499.567 -2580.974 1505.056 -2586.918 1510.141 C-2591.479 1514.214 -2595.708 1518.647 -2600 1523 C-2605.498 1528.577 -2610.994 1534.078 -2616.949 1539.172 C-2621.328 1543.075 -2625.383 1547.324 -2629.5 1551.5 C-2634.844 1556.921 -2640.181 1562.234 -2645.963 1567.186 C-2650.163 1570.927 -2654.054 1574.995 -2658 1579 C-2663.192 1584.271 -2668.391 1589.414 -2674.008 1594.23 C-2677.846 1597.64 -2681.402 1601.341 -2685 1605 C-2689.867 1609.95 -2694.77 1614.733 -2700.035 1619.258 C-2703.516 1622.344 -2706.744 1625.68 -2710 1629 C-2714.54 1633.628 -2719.15 1638.054 -2724.062 1642.285 C-2727.185 1645.049 -2730.084 1648.022 -2733 1651 C-2737.143 1655.191 -2741.309 1659.227 -2745.812 1663.031 C-2749.651 1666.486 -2753.229 1670.21 -2756.861 1673.88 C-2760.455 1677.497 -2764.117 1680.936 -2768.012 1684.23 C-2771.122 1686.999 -2774.009 1689.989 -2776.932 1692.952 C-2780.154 1696.2 -2783.494 1699.225 -2786.973 1702.191 C-2790.317 1705.175 -2793.413 1708.406 -2796.562 1711.594 C-2799.253 1714.25 -2802.066 1716.701 -2804.938 1719.156 C-2808.289 1722.152 -2811.396 1725.389 -2814.555 1728.586 C-2817.291 1731.288 -2820.15 1733.791 -2823.07 1736.289 C-2825.84 1738.745 -2828.4 1741.391 -2830.996 1744.027 C-2833.582 1746.573 -2836.315 1748.92 -2839.066 1751.285 C-2841.564 1753.5 -2843.88 1755.869 -2846.219 1758.25 C-2848.719 1760.706 -2851.377 1762.963 -2854.031 1765.25 C-2856.506 1767.45 -2858.808 1769.794 -2861.126 1772.157 C-2862.929 1773.93 -2864.786 1775.587 -2866.703 1777.234 C-2870.992 1780.964 -2875.128 1784.838 -2879.25 1788.75 C-2885.16 1794.336 -2891.103 1799.878 -2897.109 1805.359 C-2900.25 1808.228 -2903.376 1811.113 -2906.5 1814 C-2914.299 1821.204 -2922.1 1828.406 -2930 1835.5 C-2938.15 1842.826 -2946.237 1850.158 -2953.934 1857.965 C-2955.834 1859.836 -2957.783 1861.583 -2959.812 1863.312 C-2963.389 1866.375 -2966.694 1869.653 -2970 1873 C-2973.894 1876.942 -2977.852 1880.7 -2982.074 1884.293 C-2985.117 1886.99 -2987.923 1889.915 -2990.777 1892.809 C-2993.427 1895.421 -2996.212 1897.833 -2999.035 1900.254 C-3001.734 1902.652 -3004.243 1905.216 -3006.75 1907.812 C-3008.698 1909.707 -3010.687 1911.49 -3012.738 1913.27 C-3016.995 1916.967 -3021.098 1920.807 -3025.188 1924.688 C-3032.41 1931.512 -3039.679 1938.282 -3047 1945 C-3047.503 1945.462 -3048.007 1945.924 -3048.525 1946.4 C-3051.025 1948.694 -3053.525 1950.987 -3056.027 1953.277 C-3058.042 1955.122 -3060.055 1956.968 -3062.066 1958.816 C-3068.344 1964.582 -3074.655 1970.309 -3081 1976 C-3086.223 1980.692 -3091.436 1985.394 -3096.625 1990.125 C-3100.348 1993.514 -3104.106 1996.854 -3107.906 2000.156 C-3110.464 2002.409 -3112.982 2004.703 -3115.5 2007 C-3120.985 2011.997 -3126.533 2016.903 -3132.184 2021.711 C-3137.94 2026.614 -3143.648 2031.541 -3149.188 2036.688 C-3153.712 2040.89 -3158.408 2044.817 -3163.219 2048.688 C-3166.24 2051.2 -3169.124 2053.824 -3172 2056.5 C-3176.632 2060.81 -3181.421 2064.851 -3186.352 2068.82 C-3188.973 2070.978 -3191.492 2073.213 -3194 2075.5 C-3198.3 2079.419 -3202.759 2083.092 -3207.281 2086.75 C-3209.921 2088.935 -3212.467 2091.192 -3215 2093.5 C-3219.223 2097.344 -3223.586 2100.965 -3228.023 2104.559 C-3231.348 2107.285 -3234.616 2110.071 -3237.875 2112.875 C-3247.226 2120.918 -3256.616 2128.899 -3266.184 2136.684 C-3269.338 2139.278 -3272.452 2141.916 -3275.562 2144.562 C-3280.16 2148.471 -3284.815 2152.292 -3289.543 2156.043 C-3294.068 2159.647 -3298.528 2163.33 -3303 2167 C-3310.589 2173.221 -3318.198 2179.417 -3325.816 2185.602 C-3328.577 2187.843 -3331.335 2190.088 -3334.09 2192.336 C-3340.942 2197.923 -3347.822 2203.467 -3354.788 2208.911 C-3358.992 2212.198 -3363.156 2215.53 -3367.312 2218.875 C-3373.328 2223.712 -3379.442 2228.406 -3385.591 2233.072 C-3390.495 2236.808 -3395.298 2240.65 -3400.062 2244.562 C-3405.974 2249.414 -3412.004 2254.065 -3418.143 2258.624 C-3422.46 2261.832 -3426.72 2265.1 -3430.938 2268.438 C-3438.111 2274.109 -3445.371 2279.664 -3452.646 2285.205 C-3455.127 2287.097 -3457.605 2288.994 -3460.082 2290.891 C-3469.295 2297.939 -3478.551 2304.921 -3487.906 2311.781 C-3493.633 2315.983 -3499.323 2320.231 -3505 2324.5 C-3526.033 2340.302 -3547.279 2355.631 -3569.217 2370.154 C-3571.998 2371.999 -3574.773 2373.851 -3577.547 2375.707 C-3602.52 2392.413 -3627.647 2408.875 -3653 2425 C-3654.922 2426.225 -3656.844 2427.45 -3658.766 2428.676 C-3663.327 2431.583 -3667.891 2434.486 -3672.458 2437.386 C-3674.098 2438.427 -3675.738 2439.47 -3677.378 2440.513 C-3691.494 2449.49 -3705.729 2458.272 -3720 2467 C-3721.116 2467.682 -3722.231 2468.364 -3723.38 2469.067 C-3750.063 2485.366 -3776.95 2501.319 -3804 2517 C-3805.038 2517.603 -3806.076 2518.205 -3807.145 2518.826 C-3821.954 2527.421 -3836.83 2535.888 -3851.792 2544.214 C-3855.105 2546.058 -3858.416 2547.906 -3861.727 2549.754 C-3875.393 2557.373 -3889.102 2564.907 -3902.881 2572.321 C-3905.021 2573.473 -3907.16 2574.626 -3909.299 2575.78 C-3923.613 2583.504 -3937.978 2591.113 -3952.442 2598.55 C-3962.193 2603.565 -3962.193 2603.565 -3966.922 2606.082 C-3981.474 2613.822 -3996.207 2621.197 -4010.948 2628.567 C-4013.926 2630.056 -4016.903 2631.548 -4019.879 2633.042 C-4037.101 2641.693 -4054.376 2650.162 -4071.9 2658.187 C-4078.037 2661 -4084.116 2663.926 -4090.188 2666.875 C-4105.338 2674.183 -4120.65 2681.123 -4136 2688 C-4136.807 2688.362 -4137.614 2688.723 -4138.445 2689.096 C-4166.798 2701.79 -4195.313 2714.079 -4224 2726 C-4224.972 2726.404 -4225.944 2726.808 -4226.946 2727.225 C-4272.003 2745.937 -4317.476 2763.572 -4363.393 2780.064 C-4366.055 2781.02 -4368.716 2781.978 -4371.377 2782.937 C-4420.827 2800.726 -4470.564 2818.195 -4521 2833 C-4521.478 2833.14 -4521.478 2833.14 -4523.895 2833.85 C-4622.547 2862.772 -4722.982 2884.233 -4823.348 2906.211 C-4824.511 2906.466 -4825.674 2906.72 -4826.873 2906.983 C-4838.088 2909.439 -4849.303 2911.894 -4860.52 2914.342 C-4865.648 2915.462 -4870.775 2916.582 -4875.902 2917.703 C-4876.891 2917.919 -4877.881 2918.135 -4878.9 2918.358 C-4890.413 2920.874 -4901.919 2923.424 -4913.414 2926.025 C-4914.524 2926.276 -4915.634 2926.527 -4916.777 2926.785 C-4922.098 2927.988 -4927.417 2929.195 -4932.735 2930.411 C-4960.031 2936.618 -4987.084 2938.858 -5015 2940 C-5014 2937 -5014 2937 -5012.438 2935.932 C-4984.107 2922.459 -4953.895 2914.246 -4923.745 2905.939 C-4912.308 2902.786 -4900.948 2899.547 -4889.683 2895.817 C-4882.372 2893.404 -4875.001 2891.237 -4867.604 2889.107 C-4787.874 2866.107 -4710.703 2835.681 -4635.542 2800.65 C-4633.105 2799.515 -4630.667 2798.382 -4628.227 2797.252 C-4610.707 2789.138 -4593.332 2780.76 -4576.062 2772.125 C-4575.63 2771.909 -4575.63 2771.909 -4573.44 2770.815 C-4561.943 2765.066 -4550.528 2759.175 -4539.173 2753.152 C-4537.139 2752.074 -4535.104 2750.998 -4533.069 2749.924 C-4529.459 2748.018 -4525.853 2746.105 -4522.25 2744.188 C-4521.933 2744.019 -4521.933 2744.019 -4520.332 2743.167 C-4510.876 2738.128 -4501.504 2732.962 -4492.198 2727.651 C-4485.863 2724.038 -4479.479 2720.528 -4473.062 2717.062 C-4463.317 2711.785 -4453.742 2706.241 -4444.188 2700.625 C-4438.973 2697.561 -4433.732 2694.546 -4428.483 2691.54 C-4415.243 2683.953 -4402.184 2676.097 -4389.163 2668.142 C-4383.112 2664.45 -4377.024 2660.821 -4370.938 2657.188 C-4361.305 2651.425 -4351.777 2645.521 -4342.319 2639.476 C-4340.025 2638.016 -4337.721 2636.57 -4335.414 2635.129 C-4316.868 2623.493 -4298.737 2611.217 -4280.544 2599.04 C-4276.765 2596.51 -4272.981 2593.988 -4269.195 2591.469 C-4264.942 2588.635 -4260.708 2585.776 -4256.5 2582.875 C-4255.841 2582.421 -4255.182 2581.967 -4254.503 2581.5 C-4240.292 2571.692 -4226.185 2561.75 -4212.213 2551.604 C-4209.993 2549.995 -4207.769 2548.391 -4205.543 2546.789 C-4189.108 2534.958 -4172.84 2522.93 -4156.754 2510.629 C-4153.018 2507.773 -4149.267 2504.939 -4145.5 2502.125 C-4139.286 2497.478 -4133.136 2492.749 -4127 2488 C-4126.311 2487.467 -4125.622 2486.934 -4124.912 2486.385 C-4116.355 2479.763 -4107.832 2473.103 -4099.398 2466.324 C-4095.333 2463.058 -4091.237 2459.833 -4087.125 2456.625 C-4081.103 2451.92 -4075.207 2447.072 -4069.323 2442.196 C-4064.873 2438.517 -4060.374 2434.915 -4055.812 2431.375 C-4050.417 2427.182 -4045.204 2422.811 -4040.038 2418.339 C-4036.568 2415.337 -4033.064 2412.391 -4029.5 2409.5 C-4024.653 2405.566 -4019.917 2401.514 -4015.189 2397.439 C-4011.688 2394.428 -4008.152 2391.469 -4004.562 2388.562 C-3998.88 2383.946 -3993.364 2379.148 -3987.844 2374.34 C-3984.145 2371.119 -3980.418 2367.933 -3976.688 2364.75 C-3972.676 2361.326 -3968.713 2357.863 -3964.812 2354.312 C-3961.521 2351.321 -3958.154 2348.475 -3954.688 2345.688 C-3949.236 2341.279 -3944.123 2336.565 -3939 2331.785 C-3936.041 2329.027 -3933.016 2326.354 -3929.957 2323.707 C-3927.614 2321.664 -3925.307 2319.583 -3923 2317.5 C-3920.063 2314.849 -3917.114 2312.217 -3914.125 2309.625 C-3910.157 2306.171 -3906.29 2302.609 -3902.42 2299.045 C-3899.666 2296.513 -3896.893 2294.01 -3894.062 2291.562 C-3889.93 2287.98 -3885.929 2284.26 -3881.918 2280.543 C-3878.635 2277.503 -3875.333 2274.486 -3872 2271.5 C-3866.505 2266.573 -3861.089 2261.562 -3855.673 2256.548 C-3852.951 2254.03 -3850.225 2251.515 -3847.5 2249 C-3846.962 2248.503 -3846.424 2248.006 -3845.869 2247.494 C-3843.2 2245.029 -3840.529 2242.566 -3837.855 2240.105 C-3830.578 2233.405 -3823.347 2226.656 -3816.137 2219.883 C-3813.331 2217.248 -3810.521 2214.618 -3807.707 2211.992 C-3801.614 2206.303 -3795.547 2200.618 -3789.703 2194.672 C-3787.946 2192.947 -3786.122 2191.348 -3784.25 2189.75 C-3780.136 2186.219 -3776.345 2182.406 -3772.563 2178.526 C-3769.858 2175.774 -3767.083 2173.174 -3764.156 2170.656 C-3759.717 2166.816 -3755.611 2162.686 -3751.5 2158.5 C-3747.492 2154.419 -3743.505 2150.376 -3739.156 2146.656 C-3733.82 2142.065 -3728.939 2137.009 -3724 2132 C-3722.107 2130.08 -3720.211 2128.164 -3718.312 2126.25 C-3717.484 2125.41 -3716.655 2124.569 -3715.801 2123.703 C-3713.628 2121.606 -3711.434 2119.621 -3709.15 2117.65 C-3705.007 2114.056 -3701.134 2110.245 -3697.281 2106.344 C-3696.93 2105.991 -3696.93 2105.991 -3695.153 2104.204 C-3692.933 2101.972 -3690.716 2099.736 -3688.5 2097.5 C-3685.576 2094.549 -3682.648 2091.602 -3679.719 2088.656 C-3679.063 2087.993 -3678.408 2087.329 -3677.733 2086.645 C-3677.098 2086.007 -3676.464 2085.37 -3675.811 2084.713 C-3675.266 2084.163 -3674.722 2083.614 -3674.161 2083.047 C-3672.285 2081.27 -3670.368 2079.589 -3668.408 2077.906 C-3663.265 2073.427 -3658.471 2068.611 -3653.656 2063.785 C-3652.642 2062.773 -3651.627 2061.76 -3650.613 2060.747 C-3647.879 2058.018 -3645.149 2055.286 -3642.419 2052.553 C-3639.549 2049.681 -3636.676 2046.811 -3633.804 2043.94 C-3628.984 2039.121 -3624.165 2034.3 -3619.347 2029.478 C-3613.794 2023.919 -3608.237 2018.363 -3602.678 2012.81 C-3597.888 2008.024 -3593.099 2003.237 -3588.313 1998.447 C-3585.461 1995.595 -3582.61 1992.743 -3579.756 1989.892 C-3577.072 1987.211 -3574.391 1984.528 -3571.711 1981.843 C-3570.733 1980.863 -3569.754 1979.884 -3568.774 1978.906 C-3567.426 1977.561 -3566.081 1976.212 -3564.736 1974.863 C-3564.361 1974.488 -3564.361 1974.488 -3562.463 1972.589 C-3560.455 1970.478 -3558.539 1968.335 -3556.633 1966.132 C-3553.277 1962.271 -3549.759 1958.623 -3546.131 1955.018 C-3545.477 1954.363 -3544.822 1953.708 -3544.148 1953.034 C-3541.977 1950.864 -3539.803 1948.698 -3537.629 1946.531 C-3536.063 1944.967 -3534.497 1943.402 -3532.931 1941.838 C-3529.57 1938.479 -3526.207 1935.123 -3522.842 1931.767 C-3517.519 1926.458 -3512.2 1921.144 -3506.881 1915.83 C-3499.421 1908.377 -3491.96 1900.926 -3484.497 1893.477 C-3484.024 1893.005 -3483.552 1892.533 -3483.065 1892.047 C-3479.23 1888.219 -3475.395 1884.391 -3471.56 1880.563 C-3468.208 1877.216 -3464.855 1873.87 -3461.503 1870.523 C-3461.031 1870.052 -3460.559 1869.581 -3460.072 1869.095 C-3452.186 1861.223 -3444.302 1853.348 -3436.419 1845.473 C-3431.136 1840.194 -3425.849 1834.918 -3420.561 1829.643 C-3417.269 1826.358 -3413.978 1823.071 -3410.688 1819.783 C-3409.166 1818.263 -3407.644 1816.744 -3406.12 1815.226 C-3404.034 1813.147 -3401.951 1811.065 -3399.869 1808.982 C-3399.272 1808.389 -3398.674 1807.795 -3398.059 1807.183 C-3394.393 1803.509 -3390.929 1799.704 -3387.543 1795.77 C-3385.475 1793.397 -3383.292 1791.159 -3381.062 1788.938 C-3380.29 1788.163 -3379.518 1787.388 -3378.723 1786.59 C-3376.696 1784.662 -3374.659 1782.846 -3372.533 1781.035 C-3367.026 1776.226 -3361.907 1771.031 -3356.754 1765.852 C-3355.643 1764.739 -3354.531 1763.626 -3353.42 1762.513 C-3351.041 1760.131 -3348.663 1757.747 -3346.286 1755.362 C-3342.523 1751.584 -3338.755 1747.811 -3334.987 1744.038 C-3326.988 1736.028 -3318.994 1728.014 -3311 1720 C-3302.368 1711.346 -3293.735 1702.692 -3285.097 1694.044 C-3281.357 1690.299 -3277.62 1686.551 -3273.884 1682.802 C-3271.554 1680.464 -3269.221 1678.129 -3266.888 1675.793 C-3265.814 1674.717 -3264.74 1673.639 -3263.667 1672.561 C-3258.477 1667.345 -3253.254 1662.227 -3247.663 1657.437 C-3245.531 1655.595 -3243.531 1653.644 -3241.547 1651.645 C-3240.772 1650.867 -3239.998 1650.089 -3239.2 1649.288 C-3238.392 1648.471 -3237.583 1647.654 -3236.75 1646.812 C-3235.892 1645.951 -3235.035 1645.09 -3234.151 1644.202 C-3231.432 1641.471 -3228.715 1638.736 -3226 1636 C-3222.42 1632.393 -3218.836 1628.789 -3215.25 1625.188 C-3214.441 1624.371 -3213.633 1623.554 -3212.8 1622.712 C-3208.615 1618.51 -3204.349 1614.496 -3199.854 1610.629 C-3196.972 1608.097 -3194.284 1605.389 -3191.594 1602.656 C-3191.309 1602.37 -3191.309 1602.37 -3189.87 1600.921 C-3188.077 1599.116 -3186.288 1597.309 -3184.5 1595.5 C-3171.131 1581.979 -3171.131 1581.979 -3164.932 1576.709 C-3160.757 1573.016 -3156.91 1568.969 -3153 1565 C-3147.798 1559.719 -3142.589 1554.564 -3136.961 1549.738 C-3133.306 1546.498 -3129.921 1542.983 -3126.5 1539.5 C-3121.787 1534.701 -3117.02 1530.085 -3111.92 1525.697 C-3108.802 1522.941 -3105.91 1519.972 -3103 1517 C-3098.793 1512.744 -3094.56 1508.636 -3089.988 1504.77 C-3086.878 1502.001 -3083.991 1499.011 -3081.068 1496.048 C-3077.846 1492.8 -3074.506 1489.775 -3071.027 1486.809 C-3067.684 1483.826 -3064.589 1480.596 -3061.441 1477.41 C-3058.728 1474.731 -3055.892 1472.254 -3052.996 1469.777 C-3049.935 1467.051 -3047.1 1464.109 -3044.223 1461.191 C-3041.573 1458.579 -3038.788 1456.167 -3035.965 1453.746 C-3033.186 1451.276 -3030.611 1448.621 -3028.004 1445.973 C-3025.418 1443.427 -3022.685 1441.08 -3019.934 1438.715 C-3017.469 1436.529 -3015.182 1434.195 -3012.876 1431.845 C-3011.061 1430.06 -3009.191 1428.39 -3007.262 1426.73 C-3003.185 1423.186 -2999.238 1419.522 -2995.312 1415.812 C-2993.908 1414.49 -2992.503 1413.169 -2991.098 1411.848 C-2990.407 1411.198 -2989.716 1410.549 -2989.004 1409.879 C-2980.565 1401.967 -2972.016 1394.171 -2963.484 1386.359 C-2961.489 1384.532 -2959.495 1382.705 -2957.502 1380.877 C-2956.503 1379.961 -2955.503 1379.045 -2954.504 1378.129 C-2951.978 1375.814 -2949.453 1373.498 -2946.93 1371.18 C-2941.501 1366.194 -2936.048 1361.236 -2930.562 1356.312 C-2927.694 1353.724 -2924.845 1351.114 -2922 1348.5 C-2916.699 1343.631 -2911.358 1338.807 -2906 1334 C-2904.333 1332.5 -2902.666 1331 -2901 1329.5 C-2900.178 1328.76 -2899.355 1328.02 -2898.508 1327.258 C-2896.814 1325.733 -2895.121 1324.207 -2893.43 1322.68 C-2889.005 1318.688 -2884.557 1314.727 -2880.062 1310.812 C-2877.69 1308.728 -2875.344 1306.616 -2873 1304.5 C-2869.38 1301.233 -2865.73 1298.005 -2862.051 1294.805 C-2859.739 1292.77 -2857.465 1290.698 -2855.188 1288.625 C-2851.768 1285.534 -2848.28 1282.575 -2844.688 1279.688 C-2839.873 1275.797 -2835.351 1271.67 -2830.837 1267.442 C-2826.647 1263.54 -2822.278 1259.927 -2817.812 1256.344 C-2814.601 1253.668 -2811.55 1250.856 -2808.5 1248 C-2803.695 1243.5 -2798.748 1239.269 -2793.613 1235.145 C-2791.002 1233.001 -2788.496 1230.776 -2786 1228.5 C-2781.7 1224.581 -2777.241 1220.908 -2772.719 1217.25 C-2770.079 1215.065 -2767.533 1212.808 -2765 1210.5 C-2760.803 1206.678 -2756.463 1203.085 -2752.051 1199.516 C-2748.479 1196.571 -2744.988 1193.543 -2741.5 1190.5 C-2736.344 1186.005 -2731.125 1181.614 -2725.809 1177.309 C-2722.497 1174.587 -2719.247 1171.799 -2716 1169 C-2710.988 1164.682 -2705.918 1160.451 -2700.781 1156.281 C-2697.636 1153.702 -2694.535 1151.074 -2691.438 1148.438 C-2686.964 1144.635 -2682.437 1140.921 -2677.836 1137.273 C-2674.153 1134.321 -2670.515 1131.317 -2666.875 1128.312 C-2659.278 1122.043 -2651.644 1115.82 -2643.993 1109.618 C-2641.97 1107.976 -2639.952 1106.33 -2637.934 1104.684 C-2631.102 1099.112 -2624.24 1093.59 -2617.291 1088.166 C-2612.793 1084.646 -2608.36 1081.051 -2603.938 1077.438 C-2598.128 1072.693 -2592.241 1068.076 -2586.277 1063.527 C-2582.641 1060.74 -2579.07 1057.872 -2575.5 1055 C-2570.416 1050.914 -2565.297 1046.886 -2560.116 1042.923 C-2555.473 1039.371 -2550.86 1035.782 -2546.25 1032.188 C-2538.298 1025.994 -2530.306 1019.856 -2522.29 1013.747 C-2519.835 1011.874 -2517.384 1009.998 -2514.934 1008.121 C-2505.741 1001.089 -2496.505 994.129 -2487.167 987.292 C-2481.201 982.912 -2475.311 978.439 -2469.438 973.938 C-2461.54 967.89 -2453.545 962.005 -2445.461 956.211 C-2440.776 952.85 -2436.136 949.428 -2431.5 946 C-2419.615 937.222 -2407.655 928.553 -2395.562 920.062 C-2388.689 915.234 -2381.914 910.281 -2375.161 905.286 C-2361.933 895.504 -2348.553 885.938 -2335.096 876.475 C-2332.321 874.522 -2329.551 872.563 -2326.781 870.604 C-2323.19 868.066 -2319.595 865.533 -2316 863 C-2315.614 862.728 -2315.614 862.728 -2313.661 861.352 C-2300.527 852.106 -2287.3 843.005 -2274 834 C-2273.24 833.485 -2272.48 832.97 -2271.696 832.44 C-2229.272 803.708 -2229.272 803.708 -2210.402 791.55 C-2207.952 789.969 -2205.508 788.379 -2203.066 786.785 C-2184.233 774.498 -2165.276 762.401 -2146.248 750.418 C-2144.002 749.001 -2141.76 747.58 -2139.52 746.156 C-2128.212 738.98 -2116.82 731.944 -2105.406 724.938 C-2100.638 722.01 -2095.88 719.069 -2091.127 716.116 C-2070.803 703.494 -2050.317 691.148 -2029.731 678.958 C-2021.469 674.064 -2013.226 669.141 -2005 664.188 C-1994.05 657.601 -1983.026 651.146 -1971.975 644.729 C-1969.006 643.003 -1966.039 641.272 -1963.074 639.539 C-1949.509 631.611 -1935.91 623.742 -1922.295 615.9 C-1918.991 613.995 -1915.688 612.086 -1912.387 610.176 C-1899.237 602.571 -1886.05 595.041 -1872.813 587.588 C-1869.994 585.997 -1867.18 584.396 -1864.367 582.793 C-1851.114 575.248 -1837.737 567.955 -1824.29 560.762 C-1819.97 558.449 -1815.657 556.124 -1811.345 553.798 C-1807.014 551.464 -1802.682 549.132 -1798.349 546.802 C-1796.078 545.58 -1793.808 544.358 -1791.538 543.136 C-1776.993 535.308 -1762.406 527.572 -1747.738 519.977 C-1742.688 517.361 -1737.654 514.719 -1732.625 512.062 C-1722.909 506.936 -1713.157 501.88 -1703.399 496.833 C-1698.968 494.54 -1694.54 492.24 -1690.118 489.927 C-1667.433 478.093 -1644.531 466.689 -1621.642 455.256 C-1615.782 452.329 -1609.924 449.398 -1604.066 446.466 C-1599.472 444.167 -1594.876 441.87 -1590.28 439.573 C-1588.122 438.494 -1585.964 437.415 -1583.806 436.335 C-1570.054 429.453 -1556.24 422.718 -1542.35 416.119 C-1539.171 414.605 -1536.001 413.074 -1532.832 411.539 C-1520.589 405.611 -1508.306 399.783 -1495.956 394.08 C-1489.604 391.144 -1483.264 388.187 -1476.941 385.188 C-1460.683 377.479 -1444.352 369.98 -1427.889 362.715 C-1419.324 358.934 -1410.797 355.086 -1402.312 351.125 C-1354.979 329.119 -1306.734 308.864 -1258.463 289.013 C-1255.773 287.906 -1253.083 286.798 -1250.393 285.69 C-1223.257 274.518 -1196.045 263.573 -1168.661 253.025 C-1165.907 251.964 -1163.155 250.901 -1160.402 249.837 C-1117.497 233.266 -1074.385 217.274 -1031 202 C-1030.536 201.836 -1030.536 201.836 -1028.185 201.009 C-929.02 166.127 -828.733 135.088 -727.174 107.952 C-725.346 107.463 -723.519 106.972 -721.691 106.481 C-713.051 104.162 -704.394 101.91 -695.726 99.697 C-693.806 99.206 -691.886 98.714 -689.966 98.222 C-650.395 88.08 -610.67 79.307 -570.6 71.382 C-565.319 70.337 -560.04 69.286 -554.761 68.232 C-534.18 64.122 -513.593 60.046 -493 56 C-492.41 55.884 -492.41 55.884 -489.425 55.297 C-408.332 39.367 -326.995 24.651 -122.324 2.154 C-120.075 2.005 -117.827 1.846 -115.579 1.684 C-77.141 -1.059 -38.509 -0.19 0 0 Z " fill="#1A1921" transform="translate(5015,0)"/>
<path d="M0 0 C0.682 -0.001 1.364 -0.003 2.067 -0.004 C4.347 -0.008 6.626 -0.005 8.905 -0.001 C10.561 -0.002 12.216 -0.004 13.871 -0.006 C18.418 -0.01 22.965 -0.008 27.512 -0.005 C32.423 -0.003 37.335 -0.006 42.246 -0.009 C51.898 -0.013 61.551 -0.012 71.203 -0.009 C79.112 -0.007 87.022 -0.007 94.931 -0.008 C95.496 -0.008 95.496 -0.008 98.358 -0.008 C100.658 -0.009 102.957 -0.009 105.257 -0.009 C126.889 -0.012 148.52 -0.009 170.152 -0.004 C188.442 0.001 206.731 0 225.021 -0.005 C410.888 -0.05 410.888 -0.05 480.114 0.481 C483.709 0.508 487.304 0.532 490.899 0.555 C496.318 0.59 501.738 0.635 507.158 0.689 C509.047 0.706 510.937 0.721 512.827 0.733 C529.132 0.839 545.349 1.753 561.219 5.751 C562.262 6.009 563.306 6.267 564.381 6.533 C580.338 10.623 595.545 16.357 610.059 24.143 C611.89 25.117 613.736 26.055 615.59 26.985 C635.967 37.336 654.476 51.44 671.906 66.126 C672.165 66.342 672.165 66.342 673.473 67.435 C681.197 73.9 688.623 80.618 695.933 87.547 C700.818 92.158 705.833 96.576 710.962 100.912 C714.578 103.972 718.108 107.104 721.594 110.313 C725.068 113.503 728.605 116.546 732.281 119.501 C737.078 123.368 741.577 127.476 746.07 131.684 C749.417 134.801 752.836 137.762 756.406 140.626 C761.168 144.446 765.621 148.517 770.072 152.687 C773.398 155.784 776.793 158.722 780.344 161.563 C785.365 165.59 790.03 169.918 794.712 174.327 C799.028 178.369 803.511 182.122 808.129 185.817 C811.914 188.964 815.481 192.323 819.073 195.687 C822.398 198.784 825.793 201.722 829.344 204.563 C834.365 208.59 839.03 212.918 843.712 217.327 C848.025 221.365 852.505 225.115 857.117 228.809 C861.544 232.486 865.714 236.43 869.922 240.352 C874.54 244.657 879.314 248.769 884.117 252.864 C890.663 258.449 897.127 264.091 903.473 269.903 C907.931 273.975 912.491 277.924 917.09 281.837 C923.364 287.18 929.544 292.586 935.581 298.196 C938.721 301.093 941.948 303.829 945.281 306.501 C951.011 311.112 956.337 316.103 961.699 321.13 C966.358 325.496 971.177 329.658 976.043 333.79 C982.569 339.343 988.967 344.986 995.226 350.84 C998.48 353.864 1001.809 356.726 1005.281 359.501 C1010.563 363.736 1015.445 368.325 1020.359 372.973 C1023.937 376.34 1027.562 379.56 1031.406 382.626 C1037.39 387.402 1042.894 392.649 1048.461 397.895 C1051.584 400.836 1054.769 403.69 1058.019 406.489 C1060.343 408.505 1062.624 410.564 1064.906 412.626 C1067.887 415.316 1070.879 417.989 1073.906 420.626 C1077.801 424.018 1081.634 427.478 1085.469 430.938 C1087.6 432.851 1089.746 434.745 1091.906 436.626 C1095.803 440.02 1099.637 443.48 1103.473 446.942 C1105.581 448.834 1107.705 450.705 1109.844 452.563 C1114.038 456.215 1118.137 459.969 1122.246 463.716 C1125.096 466.298 1127.984 468.832 1130.887 471.356 C1135.804 475.665 1140.633 480.073 1145.484 484.454 C1149.227 487.83 1152.974 491.197 1156.781 494.501 C1160.747 497.953 1164.611 501.513 1168.479 505.074 C1171.916 508.233 1175.396 511.332 1178.922 514.391 C1182.96 517.921 1186.925 521.532 1190.906 525.126 C1192.573 526.626 1194.239 528.126 1195.906 529.626 C1205.906 538.626 1205.906 538.626 1208.414 540.884 C1210.054 542.359 1211.694 543.833 1213.336 545.306 C1217.926 549.427 1222.491 553.575 1227.031 557.751 C1230.29 560.748 1233.561 563.725 1236.906 566.626 C1240.784 569.989 1244.561 573.459 1248.339 576.934 C1253.162 581.368 1258.029 585.752 1262.906 590.126 C1268.784 595.397 1274.631 600.698 1280.445 606.039 C1283.582 608.92 1286.736 611.781 1289.906 614.626 C1296.132 620.215 1302.287 625.881 1308.447 631.542 C1313.559 636.238 1318.675 640.929 1323.844 645.563 C1328.811 650.022 1333.713 654.55 1338.613 659.083 C1341.724 661.96 1344.844 664.826 1347.969 667.688 C1348.46 668.138 1348.951 668.588 1349.456 669.051 C1350.445 669.956 1351.434 670.862 1352.422 671.767 C1355.419 674.511 1358.414 677.257 1361.409 680.003 C1363.895 682.283 1366.383 684.562 1368.871 686.841 C1375.685 693.08 1382.479 699.34 1389.265 705.61 C1391.437 707.616 1393.61 709.622 1395.783 711.628 C1396.867 712.628 1397.951 713.629 1399.035 714.63 C1401.718 717.106 1404.401 719.582 1407.086 722.056 C1412.942 727.453 1418.778 732.872 1424.594 738.313 C1430.303 743.655 1436.07 748.922 1441.906 754.126 C1449.543 750.114 1456.79 745.717 1463.969 740.938 C1470.841 736.408 1477.732 731.939 1484.781 727.688 C1495.242 721.372 1505.496 714.739 1515.775 708.134 C1520.643 705.012 1525.525 701.913 1530.406 698.813 C1537.371 694.387 1544.316 689.934 1551.238 685.44 C1557.483 681.389 1563.757 677.383 1570.031 673.376 C1581.134 666.281 1592.178 659.101 1603.206 651.89 C1607.434 649.128 1611.67 646.377 1615.906 643.626 C1624.973 637.736 1634.031 631.831 1643.086 625.923 C1646.84 623.473 1650.595 621.025 1654.351 618.579 C1670.191 608.261 1685.995 597.891 1701.795 587.513 C1703.879 586.144 1705.963 584.775 1708.047 583.407 C1723.998 572.934 1739.941 562.447 1755.871 551.941 C1778.865 536.777 1801.884 521.663 1825.101 506.841 C1829.289 504.165 1833.463 501.471 1837.627 498.76 C1845.342 493.736 1853.139 488.858 1860.976 484.027 C1866.746 480.469 1872.493 476.878 1878.219 473.251 C1893.893 463.326 1909.625 453.493 1925.429 443.776 C1929.6 441.204 1933.74 438.592 1937.85 435.923 C1945.553 430.927 1953.401 426.23 1961.344 421.626 C1963.76 420.221 1966.175 418.814 1968.59 417.407 C1968.89 417.232 1968.89 417.232 1970.41 416.347 C1976.012 413.077 1981.573 409.738 1987.131 406.394 C1993.456 402.589 1999.808 398.829 2006.156 395.063 C2007.55 394.236 2008.945 393.408 2010.339 392.581 C2016.984 388.637 2023.631 384.695 2030.281 380.759 C2032.573 379.402 2034.865 378.045 2037.156 376.688 C2038.269 376.029 2039.382 375.371 2040.529 374.692 C2046.961 370.881 2053.377 367.046 2059.781 363.188 C2068.055 358.205 2076.382 353.316 2084.719 348.438 C2096.665 341.448 2108.589 334.435 2120.344 327.126 C2125.756 323.78 2131.265 320.647 2136.822 317.552 C2145.068 312.944 2153.13 308.036 2161.195 303.122 C2170.663 297.387 2180.263 291.892 2189.881 286.415 C2196.859 282.441 2203.823 278.445 2210.77 274.417 C2223.974 266.764 2237.262 259.273 2250.637 251.923 C2252.731 250.772 2254.823 249.618 2256.914 248.462 C2273.675 239.199 2290.754 230.616 2307.912 222.116 C2318.172 217.028 2328.359 211.829 2338.478 206.466 C2342.56 204.303 2346.659 202.178 2350.769 200.071 C2351.383 199.756 2351.997 199.441 2352.63 199.117 C2353.863 198.485 2355.096 197.852 2356.328 197.221 C2366.884 191.805 2377.372 186.295 2387.761 180.564 C2394.915 176.63 2402.149 172.864 2409.406 169.126 C2418.62 164.379 2427.759 159.521 2436.84 154.524 C2444.274 150.443 2451.785 146.52 2459.315 142.619 C2465.768 139.266 2472.162 135.821 2478.531 132.313 C2490.203 125.895 2502.043 119.812 2513.885 113.717 C2518.741 111.216 2523.578 108.68 2528.406 106.126 C2566.282 86.154 2604.385 66.357 2643.411 48.718 C2647.44 46.883 2651.453 45.014 2655.465 43.141 C2670.745 36.024 2686.086 29.063 2701.601 22.471 C2703.185 21.798 2704.767 21.123 2706.349 20.444 C2721.617 13.908 2737.166 8.426 2753.531 5.376 C2754.587 5.172 2755.644 4.969 2756.732 4.76 C2779.011 0.577 2801.201 -0.024 2823.808 -0.004 C2826.294 -0.005 2828.781 -0.007 2831.268 -0.009 C2837.304 -0.013 2843.341 -0.012 2849.377 -0.009 C2854.329 -0.007 2859.282 -0.007 2864.234 -0.008 C2864.59 -0.008 2864.59 -0.008 2866.391 -0.008 C2867.839 -0.009 2869.287 -0.009 2870.735 -0.009 C2884.311 -0.012 2897.887 -0.009 2911.463 -0.004 C2922.909 0.001 2934.355 0 2945.801 -0.005 C3061.997 -0.05 3061.997 -0.05 3111.652 0.54 C3114.247 0.571 3116.842 0.6 3119.437 0.63 C3147.545 0.959 3147.545 0.959 3160.214 1.555 C3160.577 1.571 3160.577 1.571 3162.417 1.65 C3171.58 2.163 3179.305 5.768 3185.906 12.126 C3188.589 15.415 3189.81 18.443 3190.406 22.688 C3189.786 26.953 3188.737 28.87 3185.906 32.126 C3184.275 33.287 3184.275 33.287 3182.394 34.427 C3182.039 34.643 3182.039 34.643 3180.239 35.738 C3176.034 38.24 3171.816 40.718 3167.594 43.188 C3160.662 47.262 3153.799 51.411 3147.031 55.751 C3137.263 62 3127.283 67.878 3117.301 73.776 C3108.917 78.731 3100.57 83.741 3092.26 88.819 C3079.524 96.601 3066.649 104.101 3053.698 111.52 C3049.918 113.695 3046.159 115.905 3042.406 118.126 C3034.298 122.918 3026.137 127.617 3017.975 132.315 C3011.569 136.005 3005.177 139.717 2998.8 143.455 C2988.611 149.427 2978.359 155.27 2968.044 161.021 C2961.541 164.647 2955.055 168.301 2948.594 172.001 C2947.756 172.48 2946.919 172.959 2946.056 173.453 C2942.273 175.621 2938.49 177.791 2934.708 179.961 C2920.713 187.992 2906.683 195.947 2892.564 203.76 C2884.925 207.991 2877.329 212.29 2869.756 216.639 C2862.999 220.515 2856.207 224.328 2849.406 228.126 C2840.86 232.899 2832.343 237.719 2823.853 242.591 C2817.127 246.444 2810.364 250.227 2803.594 254.001 C2794.304 259.182 2785.099 264.49 2775.926 269.875 C2768.801 274.048 2761.621 278.11 2754.406 282.126 C2744.199 287.81 2734.09 293.647 2724.012 299.556 C2717.621 303.3 2711.202 306.995 2704.781 310.688 C2693.991 316.902 2683.256 323.204 2672.548 329.559 C2669.092 331.609 2665.632 333.651 2662.171 335.692 C2658.498 337.861 2654.827 340.032 2651.156 342.203 C2648.797 343.599 2646.438 344.994 2644.078 346.388 C2615.359 363.362 2615.359 363.362 2605.578 369.557 C2599.962 373.113 2594.279 376.556 2588.594 380.001 C2579.953 385.244 2571.38 390.58 2562.848 395.997 C2556.185 400.224 2549.487 404.393 2542.791 408.568 C2538.275 411.386 2533.763 414.208 2529.281 417.079 C2518.521 423.965 2507.579 430.514 2496.582 437.014 C2488.524 441.777 2480.484 446.551 2472.574 451.559 C2466.997 455.088 2461.361 458.515 2455.719 461.938 C2437.71 472.876 2419.837 484.028 2401.976 495.205 C2398.892 497.135 2395.805 499.062 2392.719 500.989 C2358.744 522.199 2324.907 543.641 2291.362 565.525 C2288.944 567.101 2286.523 568.675 2284.101 570.247 C2249.591 592.676 2215.316 615.451 2181.245 638.541 C2179.021 640.048 2176.797 641.554 2174.573 643.059 C2161.916 651.626 2149.273 660.211 2136.695 668.893 C2134.83 670.178 2132.962 671.459 2131.094 672.739 C2121.178 679.534 2111.324 686.416 2101.484 693.319 C2098.073 695.71 2094.659 698.097 2091.245 700.484 C2077.646 709.995 2064.074 719.534 2050.636 729.271 C2045.585 732.926 2040.506 736.539 2035.406 740.126 C2027.277 745.845 2019.217 751.657 2011.168 757.489 C2008.927 759.111 2006.683 760.728 2004.437 762.345 C1994.337 769.617 1984.298 776.971 1974.289 784.369 C1971.937 786.103 1969.58 787.832 1967.223 789.559 C1957.986 796.331 1948.837 803.204 1939.743 810.164 C1934.008 814.546 1928.229 818.861 1922.406 823.126 C1914.714 828.761 1907.112 834.508 1899.538 840.301 C1894.288 844.316 1889.017 848.3 1883.719 852.251 C1875.017 858.751 1866.464 865.438 1857.906 872.126 C1848.909 879.152 1839.912 886.168 1830.758 892.989 C1825.977 896.571 1821.254 900.227 1816.525 903.877 C1813.927 905.881 1811.322 907.878 1808.719 909.876 C1792.537 922.315 1776.44 934.867 1760.52 947.639 C1756.253 951.059 1751.962 954.444 1747.656 957.813 C1742.683 961.709 1737.765 965.663 1732.887 969.677 C1729.216 972.693 1725.531 975.692 1721.844 978.688 C1721.498 978.969 1721.498 978.969 1719.75 980.39 C1715.269 984.028 1710.77 987.64 1706.258 991.239 C1701.779 994.833 1697.346 998.484 1692.906 1002.126 C1691.198 1003.522 1689.49 1004.918 1687.781 1006.313 C1685.822 1007.917 1683.864 1009.521 1681.906 1011.126 C1681.587 1011.387 1681.587 1011.387 1679.975 1012.709 C1672.082 1019.183 1664.214 1025.68 1656.438 1032.293 C1653.124 1035.108 1649.778 1037.88 1646.406 1040.626 C1640.167 1045.708 1634.037 1050.915 1627.906 1056.126 C1615.708 1066.494 1615.708 1066.494 1609.531 1071.501 C1603.826 1076.146 1598.282 1080.967 1592.734 1085.798 C1589.119 1088.945 1585.485 1092.071 1581.844 1095.188 C1581.27 1095.679 1580.697 1096.17 1580.106 1096.676 C1578.951 1097.665 1577.796 1098.653 1576.64 1099.642 C1573.727 1102.135 1570.817 1104.63 1567.906 1107.126 C1566.74 1108.126 1565.573 1109.126 1564.406 1110.126 C1563.829 1110.621 1563.251 1111.116 1562.656 1111.626 C1557.406 1116.126 1557.406 1116.126 1555.655 1117.627 C1554.492 1118.624 1553.328 1119.622 1552.165 1120.619 C1549.202 1123.16 1546.236 1125.699 1543.266 1128.231 C1538.028 1132.701 1532.812 1137.179 1527.719 1141.813 C1524.405 1144.824 1521.017 1147.691 1517.531 1150.501 C1512.976 1154.184 1508.667 1158.056 1504.383 1162.044 C1501.193 1164.995 1497.923 1167.786 1494.531 1170.501 C1489.492 1174.553 1484.802 1178.899 1480.098 1183.328 C1476.636 1186.571 1473.113 1189.66 1469.406 1192.626 C1463.715 1197.182 1458.442 1202.134 1453.129 1207.118 C1450.088 1209.968 1446.983 1212.731 1443.828 1215.454 C1441.495 1217.483 1439.201 1219.553 1436.906 1221.626 C1433.289 1224.89 1429.642 1228.114 1425.969 1231.313 C1423.597 1233.398 1421.251 1235.51 1418.906 1237.626 C1415.289 1240.89 1411.642 1244.114 1407.969 1247.313 C1405.597 1249.398 1403.251 1251.51 1400.906 1253.626 C1397.926 1256.316 1394.934 1258.989 1391.906 1261.626 C1387.189 1265.737 1382.55 1269.933 1377.906 1274.126 C1368.417 1282.694 1368.417 1282.694 1363.969 1286.563 C1359.772 1290.218 1355.67 1293.973 1351.559 1297.723 C1349.382 1299.695 1347.188 1301.639 1344.969 1303.563 C1341.559 1306.525 1338.228 1309.567 1334.906 1312.626 C1330.948 1316.27 1326.954 1319.865 1322.891 1323.391 C1318.852 1326.921 1314.887 1330.532 1310.906 1334.126 C1309.24 1335.626 1307.573 1337.126 1305.906 1338.626 C1305.081 1339.368 1304.256 1340.111 1303.406 1340.876 C1275.906 1365.626 1275.906 1365.626 1273.414 1367.868 C1271.72 1369.393 1270.028 1370.919 1268.336 1372.446 C1264.591 1375.825 1260.841 1379.195 1257.031 1382.501 C1253.064 1385.954 1249.198 1389.516 1245.329 1393.078 C1241.942 1396.192 1238.507 1399.238 1235.031 1402.251 C1232.288 1404.671 1229.597 1407.148 1226.906 1409.626 C1222.948 1413.27 1218.954 1416.865 1214.891 1420.391 C1210.852 1423.921 1206.886 1427.532 1202.906 1431.126 C1193.417 1439.694 1193.417 1439.694 1188.969 1443.563 C1184.773 1447.216 1180.672 1450.971 1176.562 1454.72 C1173.735 1457.28 1170.869 1459.79 1167.988 1462.29 C1165.491 1464.492 1163.045 1466.747 1160.594 1469.001 C1156.153 1473.052 1151.584 1476.881 1146.91 1480.657 C1142.107 1484.604 1137.438 1488.703 1132.75 1492.786 C1129.051 1496.006 1125.325 1499.193 1121.594 1502.376 C1117.583 1505.8 1113.62 1509.263 1109.719 1512.813 C1106.448 1515.786 1103.104 1518.611 1099.656 1521.376 C1093.892 1526.036 1088.518 1531.064 1083.113 1536.13 C1078.43 1540.518 1073.582 1544.697 1068.699 1548.86 C1067.497 1549.886 1066.295 1550.912 1065.094 1551.938 C1064.791 1552.197 1064.791 1552.197 1063.257 1553.506 C1059.515 1556.711 1055.845 1559.978 1052.219 1563.313 C1047.833 1567.34 1043.289 1571.107 1038.656 1574.845 C1035.825 1577.193 1033.112 1579.635 1030.406 1582.126 C1026.012 1586.165 1021.488 1589.973 1016.844 1593.72 C1013.543 1596.424 1010.319 1599.207 1007.094 1602.001 C1001.959 1606.435 996.719 1610.691 991.357 1614.847 C987.453 1617.881 983.632 1620.999 979.838 1624.169 C970.92 1631.615 961.709 1638.559 952.305 1645.376 C949.929 1647.109 947.572 1648.863 945.219 1650.626 C936.736 1656.97 928.143 1663.102 919.344 1669.001 C918.432 1669.614 917.521 1670.228 916.582 1670.86 C915.739 1671.42 914.896 1671.979 914.027 1672.556 C913.653 1672.804 913.653 1672.804 911.759 1674.063 C909.906 1675.126 909.906 1675.126 907.906 1675.126 C911.357 1655.721 915.282 1636.442 919.467 1617.184 C919.98 1614.824 920.492 1612.463 921.003 1610.102 C937.093 1535.913 954.758 1462.076 972.309 1388.223 C992.575 1302.946 1012.668 1217.635 1035.435 1107.621 C1035.903 1105.331 1036.371 1103.041 1036.84 1100.752 C1037.568 1097.196 1038.29 1093.639 1039.007 1090.081 C1039.395 1088.161 1039.787 1086.242 1040.18 1084.324 C1040.295 1083.751 1040.295 1083.751 1040.875 1080.853 C1040.975 1080.357 1040.975 1080.357 1041.482 1077.849 C1042.547 1071.011 1042.547 1071.011 1040.381 1068.017 C1039.678 1067.334 1038.974 1066.65 1038.25 1065.946 C1037.474 1065.182 1036.698 1064.417 1035.898 1063.63 C1035.076 1062.845 1034.254 1062.06 1033.406 1061.251 C1032.615 1060.474 1031.823 1059.696 1031.008 1058.895 C1027.474 1055.448 1023.889 1052.103 1020.148 1048.881 C1015.669 1044.978 1011.488 1040.817 1007.312 1036.595 C1006.521 1035.8 1005.731 1035.005 1004.916 1034.186 C1001.566 1030.82 998.222 1027.449 994.878 1024.078 C992.421 1021.602 989.961 1019.129 987.5 1016.657 C986.757 1015.906 986.014 1015.155 985.249 1014.381 C981.893 1011.009 978.511 1007.732 974.906 1004.626 C970.493 1000.823 966.407 996.735 962.312 992.595 C961.521 991.8 960.731 991.005 959.916 990.186 C956.566 986.82 953.222 983.449 949.878 980.078 C947.421 977.602 944.961 975.129 942.5 972.657 C941.757 971.906 941.014 971.155 940.249 970.381 C936.264 966.378 932.182 962.584 927.904 958.899 C924.292 955.694 920.925 952.246 917.531 948.813 C916.762 948.041 915.994 947.268 915.202 946.472 C911.948 943.202 908.7 939.926 905.451 936.65 C903.063 934.244 900.672 931.841 898.281 929.438 C897.56 928.709 896.839 927.98 896.096 927.228 C892.161 923.274 888.122 919.534 883.898 915.893 C880.365 912.758 877.069 909.39 873.75 906.032 C873.003 905.282 872.257 904.531 871.488 903.758 C868.329 900.584 865.177 897.403 862.024 894.223 C859.705 891.886 857.384 889.553 855.062 887.22 C854.363 886.512 853.664 885.805 852.944 885.076 C849.054 881.167 845.054 877.475 840.879 873.874 C837.504 870.884 834.354 867.677 831.187 864.47 C830.485 863.764 829.783 863.058 829.06 862.33 C826.092 859.347 823.131 856.357 820.169 853.369 C817.99 851.171 815.808 848.976 813.625 846.782 C812.969 846.118 812.314 845.455 811.639 844.771 C807.844 840.956 803.927 837.364 799.854 833.849 C796.717 831.074 793.784 828.107 790.844 825.126 C790.208 824.486 789.573 823.847 788.918 823.188 C786.237 820.492 783.563 817.789 780.888 815.087 C768.015 802.095 768.015 802.095 762.035 797.032 C755.755 791.409 749.959 785.223 744.033 779.232 C732.049 767.129 732.049 767.129 725.976 761.973 C720.312 756.918 715.085 751.351 709.751 745.951 C704.302 740.44 698.869 734.994 692.967 729.964 C687.705 725.271 682.847 720.114 677.897 715.096 C672.734 709.869 667.561 704.744 661.971 699.968 C656.908 695.451 652.232 690.499 647.47 685.669 C642.425 680.559 637.354 675.561 631.894 670.891 C627.02 666.563 622.543 661.797 617.973 657.153 C613.752 652.891 609.467 648.819 604.916 644.913 C600.263 640.775 595.981 636.236 591.617 631.798 C587.511 627.649 583.328 623.703 578.902 619.899 C574.478 615.969 570.406 611.662 566.262 607.442 C562.261 603.397 558.169 599.564 553.857 595.854 C550.556 592.929 547.493 589.774 544.406 586.626 C540.085 582.258 535.759 578.02 531.059 574.059 C527.227 570.618 523.663 566.901 520.041 563.241 C516.491 559.669 512.875 556.28 509.027 553.028 C505.43 549.802 502.082 546.321 498.685 542.886 C495.246 539.422 491.721 536.155 487.996 532.997 C484.632 529.985 481.502 526.742 478.33 523.53 C475 520.175 471.567 517.029 467.965 513.966 C464.835 511.168 461.919 508.16 458.972 505.172 C456.367 502.545 453.722 500.026 450.906 497.626 C447.057 494.344 443.526 490.775 439.977 487.177 C436.733 483.906 433.37 480.856 429.867 477.868 C426.814 475.155 423.992 472.22 421.125 469.313 C419.112 467.329 417.052 465.465 414.906 463.626 C411.113 460.374 407.632 456.869 404.125 453.313 C402.112 451.329 400.052 449.465 397.906 447.626 C394.114 444.375 390.635 440.871 387.129 437.317 C384.479 434.705 381.694 432.293 378.871 429.872 C376.092 427.402 373.518 424.747 370.91 422.098 C368.324 419.552 365.591 417.206 362.84 414.841 C360.342 412.625 358.026 410.257 355.687 407.876 C353.822 406.043 351.887 404.332 349.906 402.626 C346.677 399.843 343.673 396.916 340.687 393.876 C338.822 392.043 336.887 390.332 334.906 388.626 C332.3 386.38 329.817 384.08 327.406 381.626 C325.056 379.233 322.642 376.994 320.094 374.813 C316.883 372.05 313.884 369.14 310.906 366.126 C307.99 363.174 305.06 360.322 301.906 357.626 C297.831 354.143 294.113 350.348 290.348 346.536 C287.634 343.857 284.798 341.38 281.902 338.903 C278.841 336.177 276.007 333.234 273.129 330.317 C270.479 327.705 267.694 325.293 264.871 322.872 C262.089 320.4 259.512 317.742 256.902 315.091 C254.985 313.204 253.01 311.439 250.969 309.688 C247.158 306.415 243.655 302.892 240.129 299.317 C237.479 296.705 234.694 294.293 231.871 291.872 C229.091 289.401 226.515 286.744 223.906 284.095 C221.967 282.186 219.969 280.399 217.906 278.626 C214.395 275.608 211.153 272.392 207.906 269.095 C205.967 267.186 203.969 265.399 201.906 263.626 C198.395 260.608 195.153 257.392 191.906 254.095 C189.967 252.186 187.969 250.399 185.906 248.626 C183.117 246.229 180.486 243.746 177.906 241.126 C175.346 238.526 172.738 236.063 169.969 233.688 C166.978 231.119 164.175 228.433 161.406 225.626 C158.658 222.84 155.878 220.173 152.906 217.626 C149.113 214.374 145.632 210.869 142.125 207.313 C140.112 205.329 138.052 203.465 135.906 201.626 C132.935 199.079 130.155 196.412 127.406 193.626 C124.698 190.881 121.964 188.253 119.031 185.751 C115.661 182.864 112.521 179.783 109.406 176.626 C106.353 173.531 103.283 170.506 99.969 167.688 C96.429 164.672 93.171 161.431 89.906 158.126 C86.703 154.883 83.515 151.696 80.031 148.751 C75.485 144.89 71.349 140.622 67.18 136.363 C64.226 133.364 61.224 130.495 58.031 127.751 C52.6 123.062 47.644 117.911 42.617 112.798 C39.232 109.378 35.855 106.024 32.187 102.907 C25.272 96.964 19.012 90.284 12.606 83.805 C10.844 82.024 9.078 80.247 7.312 78.47 C6.788 77.937 6.264 77.405 5.724 76.856 C2.981 74.096 0.179 71.47 -2.775 68.938 C-8.301 64.153 -13.426 58.958 -18.594 53.794 C-19.681 52.71 -20.768 51.626 -21.855 50.542 C-24.116 48.288 -26.375 46.031 -28.632 43.773 C-31.53 40.874 -34.435 37.983 -37.342 35.094 C-39.581 32.866 -41.815 30.634 -44.048 28.4 C-45.119 27.331 -46.19 26.264 -47.264 25.198 C-48.755 23.717 -50.24 22.229 -51.723 20.74 C-52.569 19.895 -53.415 19.05 -54.287 18.179 C-56.094 16.126 -56.094 16.126 -56.094 14.126 C-18.593 0.002 -18.593 0.002 0 0 Z " fill="#1B1A22" transform="translate(392.0938129425049,104.87415885925293)"/>
<path d="M0 0 C0 0.33 0 0.66 0 1 C-0.906 1.129 -1.811 1.259 -2.745 1.392 C-3.054 1.436 -3.054 1.436 -4.617 1.66 C-6.067 1.867 -7.517 2.074 -8.966 2.281 C-13.388 2.912 -17.81 3.545 -22.232 4.179 C-32.658 5.674 -43.085 7.154 -53.517 8.605 C-128.124 18.982 -202.44 31.12 -530.551 106.746 C-531.575 107.053 -532.598 107.359 -533.653 107.675 C-538.498 109.127 -543.337 110.593 -548.167 112.092 C-549.874 112.611 -551.582 113.13 -553.289 113.648 C-554.043 113.888 -554.797 114.128 -555.573 114.375 C-563.765 116.837 -570.235 116.975 -578 113 C-579.056 112.466 -580.112 111.932 -581.199 111.381 C-582.28 110.803 -583.36 110.225 -584.473 109.629 C-585.07 109.31 -585.667 108.991 -586.282 108.663 C-588.211 107.632 -590.137 106.598 -592.062 105.562 C-593.397 104.848 -594.731 104.134 -596.065 103.42 C-607.41 97.342 -618.718 91.196 -630 85 C-627.06 83.04 -625.496 82.523 -622.117 81.842 C-621.107 81.635 -620.097 81.429 -619.057 81.216 C-618.501 81.105 -618.501 81.105 -615.692 80.548 C-614.517 80.31 -613.343 80.072 -612.133 79.826 C-608.888 79.169 -605.642 78.519 -602.396 77.871 C-598.941 77.18 -595.489 76.481 -592.035 75.784 C-585.36 74.438 -578.683 73.099 -572.006 71.764 C-566.605 70.684 -561.205 69.602 -555.806 68.518 C-476.956 52.696 -398.049 36.948 -122.324 2.154 C-120.075 2.005 -117.827 1.846 -115.579 1.684 C-77.141 -1.059 -38.509 -0.19 0 0 Z " fill="#0B0B0D" transform="translate(5015,0)"/>
</svg>
